<?xml version="1.0" standalone="no"?>
<!DOCTYPE svg PUBLIC "-//W3C//DTD SVG 20010904//EN"
 "http://www.w3.org/TR/2001/REC-SVG-20010904/DTD/svg10.dtd">
<svg version="1.0" xmlns="http://www.w3.org/2000/svg"
 width="1226.000000pt" height="1226.000000pt" viewBox="0 0 1226.000000 1226.000000"
 preserveAspectRatio="xMidYMid meet">
<metadata>
Created by potrace 1.11, written by Peter Selinger 2001-2013
</metadata>
<g transform="translate(0.000000,1226.000000) scale(0.100000,-0.100000)"
fill="#000000" stroke="none">
<path d="M130 6130 l0 -6130 6000 0 6000 0 0 6130 0 6130 -6000 0 -6000 0 0
-6130z m5390 4860 c0 -27 -3 -30 -30 -30 l-30 0 0 -85 0 -85 -35 0 -35 0 0 85
c0 84 0 85 -25 85 -21 0 -25 5 -25 30 l0 30 90 0 90 0 0 -30z m170 -10 c0 -38
2 -40 30 -40 28 0 30 2 30 40 0 39 1 40 35 40 l35 0 0 -115 0 -115 -35 0 c-35
0 -35 0 -35 45 0 43 -1 45 -30 45 -29 0 -30 -2 -30 -45 0 -45 0 -45 -35 -45
l-35 0 0 115 0 115 35 0 c34 0 35 -1 35 -40z m320 -75 l0 -115 -35 0 -35 0 0
115 0 115 35 0 35 0 0 -115z m265 103 c3 -3 1 -17 -4 -31 -9 -23 -14 -25 -46
-20 -45 7 -45 -8 0 -30 103 -49 46 -165 -70 -140 -36 7 -40 11 -43 41 -4 35
-1 36 44 23 52 -15 63 4 16 28 -48 24 -53 31 -54 73 -2 48 33 71 99 66 29 -3
55 -7 58 -10z m335 -103 l0 -115 -35 0 -35 0 0 115 0 115 35 0 35 0 0 -115z
m260 105 c16 -9 18 -14 8 -35 -10 -22 -16 -24 -52 -19 -35 5 -39 3 -24 -8 9
-7 30 -20 46 -29 87 -49 10 -161 -90 -133 -27 8 -34 15 -36 42 -4 35 2 37 44
22 41 -16 54 4 16 24 -35 18 -62 52 -62 79 0 33 45 67 90 67 23 0 50 -5 60
-10z m-320 -3505 l0 -65 -208 0 -208 0 -138 -427 c-76 -236 -141 -431 -145
-435 -8 -10 -117 28 -115 39 1 4 51 161 112 348 61 187 127 391 147 453 20 63
45 122 56 133 18 18 35 19 259 19 l240 0 0 -65z m787 42 c10 -9 79 -204 154
-431 l135 -413 -53 -17 c-29 -10 -57 -15 -61 -12 -4 2 -64 176 -132 385 l-125
381 -257 0 -258 0 0 65 0 66 290 -3 c261 -3 291 -5 307 -21z m-5263 -19 c12
-21 96 -288 96 -309 0 -13 -103 -41 -110 -29 -3 5 -21 61 -39 125 l-33 115
-534 0 -534 0 0 60 0 60 570 0 570 0 14 -22z m1546 -38 l0 -59 -71 -3 -72 -3
-161 -562 c-88 -310 -164 -563 -169 -563 -5 0 -33 7 -62 15 l-52 16 169 592
c93 326 177 600 185 610 13 14 34 17 125 17 l108 0 0 -60z m1062 43 c17 -15
18 -39 18 -330 l0 -313 -60 0 -60 0 0 270 0 270 -380 0 -380 0 0 60 0 60 422
0 c378 0 423 -2 440 -17z m4198 -43 c0 -57 -1 -60 -25 -60 l-25 0 0 -620 0
-620 -65 0 -65 0 2 663 c3 545 5 667 17 680 10 13 31 17 87 17 l74 0 0 -60z
m1345 45 c116 -14 275 -42 282 -49 6 -6 -18 -106 -27 -111 -4 -3 -50 4 -102
14 -157 32 -330 41 -824 41 l-474 0 0 60 0 60 513 0 c394 0 540 -3 632 -15z
m619 -169 c397 -193 646 -499 756 -928 11 -42 20 -78 20 -81 0 -3 -21 -8 -46
-12 -26 -3 -52 -9 -58 -11 -8 -3 -19 23 -31 73 -43 186 -131 365 -253 515
-113 141 -315 291 -483 360 l-77 31 14 41 c8 23 16 47 19 54 7 19 21 15 139
-42z m-9954 -686 l0 -710 -65 0 -65 0 0 710 0 710 65 0 65 0 0 -710z m1543
-336 c109 -372 195 -680 190 -684 -11 -9 -102 -34 -108 -29 -2 3 -93 308 -203
679 l-199 675 51 17 c28 9 56 16 61 17 6 0 99 -304 208 -675z m4305 648 c10
-10 24 -48 31 -83 7 -35 26 -118 42 -184 16 -66 29 -122 29 -126 0 -4 -17 -9
-37 -13 -21 -3 -47 -9 -59 -12 -18 -5 -22 1 -31 38 -6 25 -12 37 -15 28 -3 -8
-43 -167 -88 -352 -45 -186 -85 -340 -89 -342 -8 -6 -92 14 -103 23 -4 4 30
157 76 341 46 184 98 409 116 500 18 91 40 173 48 183 20 22 57 22 80 -1z
m3345 -183 c41 -6 79 -14 85 -18 8 -5 7 -20 -2 -56 -12 -47 -14 -50 -42 -47
-16 1 -111 5 -211 8 l-183 6 0 -431 0 -431 -60 0 -60 0 0 470 c0 457 1 471 20
490 19 19 33 20 200 20 98 0 212 -5 253 -11z m418 -196 c152 -162 228 -416
229 -763 0 -327 -68 -590 -198 -757 l-17 -22 -48 42 -47 42 33 50 c69 105 118
253 138 419 13 110 13 384 -1 476 -31 219 -120 398 -234 476 l-37 25 19 32
c10 18 25 42 32 54 l14 21 40 -28 c23 -15 57 -45 77 -67z m-5801 -633 l0 -710
-60 0 -60 0 0 710 0 710 60 0 60 0 0 -710z m-3056 608 c8 -13 99 -318 201
-678 102 -360 188 -663 191 -672 4 -13 -7 -21 -50 -34 -31 -10 -57 -16 -60
-13 -2 2 -56 191 -120 419 -64 228 -118 419 -120 425 -1 5 0 -237 2 -538 l5
-547 -60 0 -60 0 -7 488 c-3 268 -13 582 -21 697 -8 116 -15 213 -15 218 0 4
14 7 30 7 17 0 30 4 30 8 0 4 -11 45 -24 89 l-23 82 23 5 c19 5 24 13 24 36 0
23 4 30 20 30 11 0 26 -10 34 -22z m2241 2 c20 -22 19 -72 -5 -550 -5 -102 -9
-238 -10 -302 l0 -118 -61 0 -61 0 4 233 3 233 -57 17 c-32 10 -58 22 -58 27
0 30 124 448 138 463 21 24 84 23 107 -3z m3814 -112 c5 -18 103 -316 216
-663 114 -346 208 -634 209 -639 0 -5 -24 -17 -54 -26 l-55 -17 -218 662
c-119 364 -217 666 -217 672 0 8 73 38 102 42 3 1 11 -14 17 -31z m-1949 -83
c19 -7 35 -19 34 -26 -1 -14 -424 -1330 -430 -1338 -1 -1 -29 6 -61 16 -44 15
-57 24 -55 37 3 19 86 275 298 924 151 460 127 417 214 387z m1185 -155 c21
-80 71 -271 111 -425 40 -154 70 -283 66 -286 -4 -4 -16 -9 -27 -11 -14 -2
-21 -12 -23 -36 l-3 -32 -362 0 c-397 0 -407 1 -407 57 0 41 61 263 73 263 17
0 92 -23 101 -31 8 -7 0 -46 -30 -151 -5 -17 13 -18 270 -18 152 0 276 3 276
6 0 5 -96 373 -169 646 l-39 146 57 15 c31 8 59 11 62 8 3 -3 23 -71 44 -151z
m4730 -197 c17 -243 -15 -569 -76 -788 -26 -94 -92 -265 -102 -265 -4 0 -30
11 -57 25 l-49 25 30 72 c56 137 97 309 120 503 12 104 15 471 4 504 -6 20 9
25 92 29 l31 2 7 -107z m-8605 72 c20 -7 34 -18 33 -26 -2 -8 -68 -239 -147
-513 -100 -349 -149 -504 -162 -513 -10 -7 -30 -13 -45 -13 -52 0 -66 25 -119
209 -27 96 -49 175 -47 176 1 1 22 7 46 14 23 7 49 15 56 17 9 4 21 -18 38
-73 14 -46 27 -72 30 -63 3 8 56 188 117 400 60 212 112 391 115 398 5 14 12
13 85 -13z m5770 -830 l0 -715 -65 0 -65 0 0 715 0 715 65 0 65 0 0 -715z
m-5132 611 c1 -2 -83 -308 -188 -680 -104 -372 -190 -679 -190 -681 0 -3 -113
25 -118 30 -1 1 83 307 188 679 104 373 190 679 190 681 0 3 113 -25 118 -29z
m-2808 -836 l0 -710 -65 0 -65 0 0 710 0 710 65 0 65 0 0 -710z m8840 235 l0
-345 128 0 c146 0 279 24 369 64 31 15 59 23 63 19 4 -5 19 -29 33 -54 l26
-47 -57 -25 c-79 -34 -146 -54 -222 -67 -83 -13 -369 -25 -403 -16 -59 14 -57
2 -57 427 l0 389 60 0 60 0 0 -345z m-5860 -480 l0 -605 40 0 40 0 0 -65 0
-65 -83 0 c-134 0 -122 -71 -125 691 l-2 649 65 0 65 0 0 -605z m830 -220 c0
-462 -1 -476 -20 -495 -19 -19 -33 -20 -275 -20 l-255 0 0 65 0 65 215 0 215
0 0 430 0 430 60 0 60 0 0 -475z m-2497 60 c58 -203 110 -389 116 -413 l12
-42 386 2 386 3 19 70 c10 39 20 75 23 82 3 9 17 8 57 -3 29 -9 54 -17 56 -19
7 -7 -59 -220 -73 -234 -14 -14 -72 -16 -455 -19 l-440 -3 0 31 c0 29 -2 31
-32 25 l-33 -6 -120 422 c-66 233 -120 427 -120 433 0 8 103 47 112 42 0 -1
48 -167 106 -371z m6249 -544 l-19 -26 -297 -3 -296 -2 0 65 0 65 239 0 239 0
-119 357 c-65 197 -119 361 -119 365 0 3 26 15 58 26 l57 19 138 -420 139
-420 -20 -26z m-3226 753 c27 -9 52 -19 56 -23 4 -3 -38 -143 -92 -310 -55
-167 -100 -308 -100 -312 0 -5 128 -9 285 -9 l285 0 0 -65 0 -65 -338 0 c-289
0 -341 2 -360 16 -40 27 -46 2 174 677 20 59 37 107 38 107 1 0 25 -7 52 -16z
m6117 -31 c23 -15 44 -28 45 -29 2 -2 -24 -40 -59 -86 -238 -317 -605 -526
-1049 -598 -36 -6 -77 -13 -92 -16 -26 -5 -27 -3 -33 51 -4 31 -6 58 -3 60 2
2 37 9 78 15 258 39 519 140 715 275 82 57 245 219 300 299 21 31 42 56 47 56
5 0 27 -12 51 -27z m-4543 -63 l0 -60 -297 -2 -296 -3 -82 -298 c-45 -164 -87
-303 -94 -310 -7 -7 -48 -14 -91 -16 l-80 -3 0 61 0 61 43 0 43 0 80 297 c48
182 86 305 97 315 16 17 45 18 347 18 l330 0 0 -60z m492 43 c9 -10 48 -142
87 -293 40 -151 74 -283 77 -292 5 -16 18 -18 100 -18 l94 0 0 -65 0 -65 -120
0 -120 0 0 31 c0 28 -2 30 -28 24 l-29 -6 -62 238 c-34 131 -69 262 -77 291
l-15 52 -100 0 -99 0 0 60 0 60 138 0 c120 0 141 -2 154 -17z m-5602 -378 c0
-302 -1 -316 -20 -335 -19 -19 -33 -20 -444 -20 l-425 0 -20 26 c-30 38 -27
54 9 54 25 0 30 4 30 25 l0 25 370 0 370 0 0 270 0 270 65 0 65 0 0 -315z
m7140 -140 l0 -85 560 0 560 0 0 -65 0 -65 -604 0 -605 0 -20 26 c-19 24 -21
40 -21 150 l0 124 65 0 65 0 0 -85z"/>
</g>
</svg>
